# xmcd
# 
# Track frame offsets:
#     150
#     16767
#     33632
#     48927
#     66675
#     85575
#     104720
#     121142
#     137762
#     154615
#     174675
# 
# Disc length: 2587
# 
# Revision: 1
# Processed by: cddbd v1.5.2PL0 Copyright (c) Steve Scherf et al.
# Submitted via: BonkEnc v1.0
# 
DISCID=910a190b
DTITLE=Rick Astley - "Keep It Turned On"
DYEAR=2002
DGENRE=Pop
TTITLE0=Sleeping
TTITLE1=Wanna Believe You
TTITLE2=What You See Is What You Don't Get
TTITLE3=Breathe
TTITLE4=One Night Stand
TTITLE5=Don't Ask
TTITLE6=Keep It Turned On
TTITLE7=Romeo Loves Juliet
TTITLE8=Let's Go Out Tonight
TTITLE9=Full Of You
TTITLE10=Miracle
EXTD=YEAR: 2002
EXTT0=
EXTT1=
EXTT2=
EXTT3=
EXTT4=
EXTT5=
EXTT6=
EXTT7=
EXTT8=
EXTT9=
EXTT10=
PLAYORDER=
